{"title":"Gangs of Oz - Season 1 - High DVD resolution","uid":8538219,"size":3363700556,"categoryP":"video","categoryS":"tv_shows","magnet":"?xt=urn:btih:9974cc12ddf267fc7ad55940774edeb26b140de3&amp;dn=Gangs+of+Oz+-+Season+1+-+High+DVD+resolution&amp;tr=udp%3A%2F%2Ftracker.openbittorrent.com%3A80&amp;tr=udp%3A%2F%2Fopen.demonii.com%3A1337&amp;tr=udp%3A%2F%2Ftracker.coppersurfer.tk%3A6969&amp;tr=udp%3A%2F%2Fexodus.desync.com%3A6969","seeders":1,"leechers":4,"uploader":"da_grub","files":-1,"time":1370317626,"description":"Gangs of Oz - Season 1 &quot;COMPLETE&quot;\n\n\nThis contains full DVD resolution (720x576) quality using H.264/AVC encoding and with the 2 channel DVD audio (256 Kbps) in an &quot;MKV&quot; file container.\n\n\nSummary:\nEvery day on our streets brutal wars are fought between powerful crime dynasties. Murder, intimidation and extortion.... Just another day in the office for these gangs, fiercely protecting their multi-million dollar businesses. Gangs of Oz Season 1 is a 5 part docu-drama series looking at different criminal gangs operating in Australia over the last few decades. Each episodes examines the &quot;families&quot; of crime, that operate with a deadly code of loyalty and secrecy.\n\n\n\nFile listing:\nGangs of Oz S01E01 - Middle Eastern Gangs - The Power, The Passion, The Betrayal.mkv\nGangs of Oz S01E02 - The Aussie Mafia - Inside The Family.mkv\nGangs of Oz S01E03 - The Bikies - Inside The Band Of Brothers.mkv\nGangs of Oz S01E04 - The Gangland Wars - The Tale of Three Gangs.mkv\nGangs of Oz S01E05 - Asian Gangs - Chasing The Dragon Tony Hoang.mkv\n\n\n\n\nGeneral\nFormat                         : Matroska\nFormat version                 : Version 2\nFile size                      : 648 MiB\nDuration                       : 44mn 39s\nOverall bit rate               : 2 028 Kbps\nWriting application            : Lavf52.104.0\nWriting library                : Lavf52.104.0\n\nVideo\nID                             : 1\nFormat                         : AVC\nFormat/Info                    : Advanced Video Codec\nFormat profile                 : &lt;a class=&quot;__cf_email__&quot; href=&quot;/cdn-cgi/l/email-protection&quot; data-cfemail=&quot;dd90bcb4b39d91eef3ed&quot;&gt;[email&amp;#160;protected]&lt;/a&gt;&lt;script cf-hash='f9e31' type=&quot;text/javascript&quot;&gt;\n/* &lt;![CDATA[ */!function(){try{var t=&quot;currentScript&quot;in document?document.currentScript:function(){for(var t=document.getElementsByTagName(&quot;script&quot;),e=t.length;e--;)if(t[e].getAttribute(&quot;cf-hash&quot;))return t[e]}();if(t&amp;&amp;t.previousSibling){var e,r,n,i,c=t.previousSibling,a=c.getAttribute(&quot;data-cfemail&quot;);if(a){for(e=&quot;&quot;,r=parseInt(a.substr(0,2),16),n=2;a.length-n;n+=2)i=parseInt(a.substr(n,2),16)^r,e+=String.fromCharCode(i);e=document.createTextNode(e),c.parentNode.replaceChild(e,c)}}}catch(u){}}();/* ]]&gt; */&lt;/script&gt;\nFormat settings, CABAC         : Yes\nFormat settings, ReFrames      : 2 frames\nCodec ID                       : V_MPEG4/ISO/AVC\nDuration                       : 44mn 39s\nBit rate                       : 1 799 Kbps\nWidth                          : 720 pixels\nHeight                         : 576 pixels\nDisplay aspect ratio           : 16:9\nFrame rate mode                : Constant\nFrame rate                     : 25.000 fps\nStandard                       : PAL\nColor space                    : YUV\nChroma subsampling             : 4:2:0\nBit depth                      : 8 bits\nScan type                      : Progressive\nBits/(Pixel*Frame)             : 0.174\nStream size                    : 553 MiB (85%)\nWriting library                : x264 core 100\nLanguage                       : English\nDefault                        : Yes\nForced                         : No\n\nAudio\nID                             : 2\nFormat                         : AC-3\nFormat/Info                    : Audio Coding 3\nMode extension                 : CM (complete main)\nFormat settings, Endianness    : Big\nCodec ID                       : A_AC3\nDuration                       : 44mn 39s\nBit rate mode                  : Constant\nBit rate                       : 256 Kbps\nChannel(s)                     : 2 channels\nChannel positions              : Front: L R\nSampling rate                  : 48.0 KHz\nBit depth                      : 16 bits\nCompression mode               : Lossy\nStream size                    : 81.8 MiB (13%)\nLanguage                       : English\nDefault                        : Yes\nForced                         : No","torrent":{"xt":"urn:btih:9974cc12ddf267fc7ad55940774edeb26b140de3","amp;dn":"Gangs+of+Oz+-+Season+1+-+High+DVD+resolution","amp;tr":["udp%3A%2F%2Ftracker.openbittorrent.com%3A80","udp%3A%2F%2Fopen.demonii.com%3A1337","udp%3A%2F%2Ftracker.coppersurfer.tk%3A6969","udp%3A%2F%2Fexodus.desync.com%3A6969"],"infoHash":"9974cc12ddf267fc7ad55940774edeb26b140de3","infoHashBuffer":{"type":"Buffer","data":[153,116,204,18,221,242,103,252,122,213,89,64,119,78,222,178,107,20,13,227]},"announce":[],"urlList":[]}}